<?xml version="1.0" encoding="UTF-8" standalone="no"?>
<svg
   sodipodi:docname="FlexiLib.svg"
   id="svg86"
   viewBox="33 34 115 115"
   version="1.1"
   inkscape:version="1.2.2 (b0a8486541, 2022-12-01)"
   width="180"
   height="180"
   xmlns:inkscape="http://www.inkscape.org/namespaces/inkscape"
   xmlns:sodipodi="http://sodipodi.sourceforge.net/DTD/sodipodi-0.dtd"
   xmlns="http://www.w3.org/2000/svg"
   xmlns:svg="http://www.w3.org/2000/svg">
  <defs
     id="defs90" />
  <sodipodi:namedview
     id="namedview88"
     pagecolor="#ffffff"
     bordercolor="#000000"
     borderopacity="0.25"
     inkscape:showpageshadow="2"
     inkscape:pageopacity="0.0"
     inkscape:pagecheckerboard="0"
     inkscape:deskcolor="#d1d1d1"
     showgrid="true"
     inkscape:zoom="5.6568542"
     inkscape:cx="36.857941"
     inkscape:cy="85.736697"
     inkscape:window-width="2556"
     inkscape:window-height="1401"
     inkscape:window-x="2560"
     inkscape:window-y="18"
     inkscape:window-maximized="1"
     inkscape:current-layer="svg86">
    <inkscape:grid
       type="xygrid"
       id="grid121" />
  </sodipodi:namedview>
  <path
     sodipodi:type="star"
     style="fill:#ffffff;fill-opacity:1;stroke-width:0.638889"
     id="path1895"
     inkscape:flatsided="true"
     sodipodi:sides="6"
     sodipodi:cx="87.347626"
     sodipodi:cy="84.844658"
     sodipodi:r1="85.043755"
     sodipodi:r2="73.650047"
     sodipodi:arg1="1.5677453"
     sodipodi:arg2="2.0913441"
     inkscape:rounded="0"
     inkscape:randomized="0"
     d="M 87.607096,169.88802 13.827652,127.59105 13.568181,42.547686 87.088155,-0.19870085 160.8676,42.098271 l 0.25947,85.043359 z"
     transform="matrix(0.65487919,0,0,0.64930699,33.891658,35.582599)" />
  <path
     fill="#390617"
     d="M 139.6277,72.480912 C 123.7164,64.479742 106.17252,54.215344 91.38,46.5 91.102799,46.361424 90.770728,46.361424 90.48,46.5 72.817543,54.705109 57.284472,64.940637 42.203704,72.957679 42.175585,70.005494 42.104004,64.645961 42.09386,61.480469 42.10036,61.184017 42.130201,60.894132 42.42,60.74 L 90.3,34.93 c 0.274314,-0.149386 0.605686,-0.149386 0.88,0 16.80866,9.161969 33.52055,18.46438 48.50478,26.71 0.009,3.689596 -0.005,5.446106 -0.0571,10.840912 z"
     id="path74"
     sodipodi:nodetypes="cccccccccc" />
  <path
     fill="#390617"
     d="m 90.136719,57.294922 c -16.387544,4.809461 -33.06991,10.59813 -47.92952,15.502634 -0.09927,15.933221 -0.157171,32.796654 -0.146651,48.663384 0.07772,0.19366 0.03093,0.44959 0.224609,0.58594 3.588344,2.31373 3.614451,2.32267 5.6875,3.49804 13.208985,6.92839 26.417969,13.85677 39.626953,20.78516 0.866537,0.40885 1.733073,0.81771 2.59961,1.22656 0.222005,0.004 0.44401,0.008 0.666015,0.0117 l 2.970704,-1.44336 c 15.041661,-8.00521 30.083331,-16.01042 45.125001,-24.01562 0.19723,-0.3494 0.6184,-0.90069 0.75323,-1.27672 0.005,-16.44899 0.12708,-32.773051 -0.0785,-48.373978 L 90.667061,57.306506 c -0.306583,-0.09184 -0.309209,-0.07434 -0.530342,-0.01158 z m 39.564451,21.005859 c 0.0158,9.328379 0.0352,18.656754 0.0488,27.985139 v 11.43478 c 0.003,0.63066 -0.0447,0.82422 -0.51172,1.07227 -21.82306,11.38317 -25.89024,13.3893 -38.318358,19.67773 -0.653032,0.33438 -0.663521,0.3281 -1.32104,-0.0127 -24.718774,-12.17687 -24.689565,-12.18741 -36.27857,-18.2275 -0.456237,-0.25003 -0.459059,-0.24845 -0.782702,-0.5058 -0.274517,-0.36741 -0.277246,-0.36472 -0.38136,-0.78912 -0.0411,-5.05897 0.02994,-40.534022 0.02994,-40.534022 0.02135,-0.280512 -0.126625,-0.930223 0.695995,-0.92922 1.651871,0.870086 9.160689,5.415903 11.108057,6.476911 0.248414,0.01639 0.341671,-0.01696 0.462273,-0.317247 0.228661,-2.228021 2.479477,-1.789338 3.986684,-1.852523 15.931833,0.0041 32.970811,0.03144 47.676041,0.05064 0.55525,0.270346 0.24107,1.191651 0.44575,1.747961 0.0891,0.174636 0.0852,0.191576 0.3162,0.190031 l 11.86109,-6.426271 c 0.96523,0.04906 0.8711,0.190758 0.96292,0.958941 z"
     id="path78"
     sodipodi:nodetypes="cccccccccccccccccccccccccccccccccc" />
  <path
     fill="#390617"
     d="m 116.46,111.69 0.21,-25.26 c -6.3e-4,-0.313724 0.16479,-0.598395 0.43,-0.74 l 10.15,-5.51 c 0.22049,-0.122233 0.49106,0.0379 0.49,0.29 v 36.78 c -8.1e-4,0.30664 -0.17437,0.5882 -0.45,0.73 l -36.309998,18.74972 c -0.513543,0.16239 -1.021543,0.19466 -1.512645,-0.0294 L 55.3,119.27 c -1.046667,-0.52667 -1.57,-1.38333 -1.57,-2.57 L 53.67,81.02 c -0.0082,-0.232203 0.232279,-0.388809 0.43,-0.28 l 9.87,5.18 c 0.2836,0.148319 0.461011,0.429863 0.46,0.73 l -0.119389,25.19064 c -0.0065,0.32204 0.780451,1.25807 1.014545,1.45444 2.87,2.44 5.784844,6.01492 9.164844,7.20492 5.053333,1.78 10,3.49667 14.84,5.15 0.635226,0.21372 1.377806,0.19612 2.11,-0.05 l 16.3,-5.47 c 0.29333,-0.1 0.56333,-0.26667 0.81,-0.5 l 7.49,-7.12 c 0.26669,-0.25419 0.41991,-0.55333 0.42,-0.82 z"
     id="path82"
     sodipodi:nodetypes="cccccccccccccccccccccccc" />
  <path
     fill="#390617"
     d="m 72.38,111.61 a 0.97,0.96 10.7 0 1 -0.62,-0.9 l 0.03,-21.43 a 0.51,0.5 0 0 1 0.51,-0.5 h 36.6 a 0.5,0.48 -90 0 1 0.48,0.5 l -0.15,21.4 a 0.76,0.72 79.9 0 1 -0.46,0.7 l -17.41,6.71 a 3.25,2.84 42.2 0 1 -2.22,-0.04 z"
     id="path84" />
</svg>
